<svg xmlns="http://www.w3.org/2000/svg" viewBox="0 0 480 480"><defs><style>.cls-1{fill:#64bdd4;}.cls-2{fill:#fff;}.cls-3{fill:#555;}.cls-4{fill:#eb6ea5;}</style></defs><title>neco_logo</title><g id="レイヤー_2" data-name="レイヤー 2"><g id="レイヤー_1-2" data-name="レイヤー 1"><circle class="cls-1" cx="240" cy="240" r="240"/><circle class="cls-2" cx="240" cy="240" r="182.86"/><ellipse class="cls-3" cx="267.51" cy="115.47" rx="25.32" ry="19.09"/><path class="cls-2" d="M260.93,116.52a3.38,3.38,0,1,1-3.37-3.37A3.37,3.37,0,0,1,260.93,116.52Zm-3.38-1.36a1.36,1.36,0,1,0,1.37,1.36A1.36,1.36,0,0,0,257.55,115.16Z"/><path class="cls-2" d="M280.83,116.52a3.38,3.38,0,1,1-3.38-3.37A3.37,3.37,0,0,1,280.83,116.52Zm-3.38-1.36a1.36,1.36,0,1,0,1.36,1.36A1.36,1.36,0,0,0,277.45,115.16Z"/><path class="cls-3" d="M247.14,92.76c0-.71.5-1,1.09-.57l12.84,8.52c.59.39.52.88-.16,1.1l-12.78,4a.87.87,0,0,1-1.21-.9Z"/><path class="cls-2" d="M249.38,97.11c0-.71.45-1,1-.55l3.3,2.28a.74.74,0,0,1-.06,1.36l-3,1.71a.71.71,0,0,1-1.15-.66Z"/><path class="cls-3" d="M288.09,104.39a.88.88,0,0,1-1.21.91l-12.78-4c-.68-.21-.75-.71-.16-1.1l12.84-8.52c.59-.39,1.08-.13,1.09.58Z"/><path class="cls-2" d="M285.55,101c0,.71-.52,1-1.14.64l-3.32-1.93a.74.74,0,0,1,0-1.36L284.58,96c.59-.39,1.07-.13,1.06.58Z"/><path class="cls-3" d="M299.16,235.34,166,224.1a28.27,28.27,0,0,1-7.93-2.44s-11.84-6.1-13.83-24.49c-2.14-44.55,31.72-62.12,33.34-62.91A8.78,8.78,0,0,0,170,118.4c-.46.22-37.59,16.94-43.45,62.55-6.2,38.3,15.92,70,15.92,70a24.49,24.49,0,0,1,3.27,7.59L158.17,310c.47,2.27,1.51,2.35,2.3.17l10.64-28.38a4.14,4.14,0,0,1,5.38-2.46l47.42,14.11a7.3,7.3,0,0,1,4.27,5.72l2.35,32c.18,2.32,1.44,2.67,2.8.79L271,279.83c1.36-1.88,3.44-1.79,4.63.2l21,35.29c1.19,2,2.26,1.73,2.39-.59l4.05-74.68A4.57,4.57,0,0,0,299.16,235.34Z"/><ellipse class="cls-4" cx="267.51" cy="202.78" rx="56.72" ry="50.33"/><ellipse class="cls-3" cx="267.51" cy="186.09" rx="82.26" ry="62.02"/><path class="cls-2" d="M246.15,189.49a11,11,0,1,1-11-11A11,11,0,0,1,246.15,189.49Zm-11-4.42a4.42,4.42,0,1,0,4.42,4.42A4.42,4.42,0,0,0,235.18,185.07Z"/><path class="cls-2" d="M310.78,189.49a11,11,0,1,1-11-11A11,11,0,0,1,310.78,189.49Zm-11-4.42a4.42,4.42,0,1,0,4.42,4.42A4.42,4.42,0,0,0,299.81,185.07Z"/><path class="cls-3" d="M201.36,110.51c0-1.32.94-1.8,2-1.07l44.7,29.67c1.09.73,1,1.64-.29,2l-45,14.1a1.62,1.62,0,0,1-2.24-1.68Z"/><path class="cls-2" d="M208.26,124c0-.88.57-1.19,1.29-.69l15,10.35a.92.92,0,0,1-.08,1.69l-14.41,8.09a.88.88,0,0,1-1.43-.82Z"/><path class="cls-3" d="M334.4,151.89a1.62,1.62,0,0,1-2.24,1.68l-45-14.1c-1.25-.39-1.38-1.31-.29-2l44.7-29.67c1.1-.73,2-.25,2,1.07Z"/><path class="cls-2" d="M326.16,141.66c0,.88-.65,1.24-1.41.79l-15.28-8.88a.91.91,0,0,1-.05-1.68l15.8-10.41c.73-.49,1.32-.16,1.3.72Z"/><path class="cls-4" d="M162.08,389.74V341.09h6.57l29.61,32.46V341.09h9.48v48.65h-6.56l-29.62-32.53v32.53Z"/><path class="cls-4" d="M246.77,380.92c-1,2.33-4.52,9.84-15.53,9.84-5.11,0-9-1.46-12.11-4.45-3.5-3.28-5-7.36-5-12.32a16.81,16.81,0,0,1,4.81-12.4,16.18,16.18,0,0,1,11.89-4.45c6.42,0,10.14,2.55,12.33,5.18,3.35,4,3.79,9,3.79,12.4v.73H223.36a9.34,9.34,0,0,0,1.53,5.32,7.53,7.53,0,0,0,6.35,3,8.13,8.13,0,0,0,7.36-4.16Zm-8.17-11.16a7.57,7.57,0,0,0-14.95,0Z"/><path class="cls-4" d="M277.62,367.79a10.25,10.25,0,0,0-7.29-2.77c-5.91,0-8.9,4.3-8.9,8.89a8.8,8.8,0,0,0,9.19,9,10.29,10.29,0,0,0,7-2.78v8.68a18.25,18.25,0,0,1-20.35-2.62,16.24,16.24,0,0,1-5-12.11,16.27,16.27,0,0,1,16.85-16.92,18.82,18.82,0,0,1,8.53,1.89Z"/><path class="cls-4" d="M313.58,361.59a17,17,0,0,1,0,24.72c-2.69,2.48-6.78,4.45-12.76,4.45s-10.07-2-12.76-4.45a17,17,0,0,1,0-24.72c2.69-2.48,6.78-4.45,12.76-4.45S310.89,359.11,313.58,361.59ZM309.72,374a8.9,8.9,0,1,0-8.9,8.9A8.81,8.81,0,0,0,309.72,374Z"/></g></g></svg>